<svg xmlns="http://www.w3.org/2000/svg" aria-hidden="true" style="position:absolute;width:0;height:0;overflow:hidden"><defs>
<symbol id="icon-navigation" viewBox="0 0 33 32"><path d="M31.625 13.938c-.508 0-1.731.563-2.603 1h-1.985a10.448 10.448 0 0 0-2.755-6.6l1.312-1.313c.932-.305 2.302-.799 2.679-1.176a1.5 1.5 0 0 0-2.121-2.122c-.359.359-.826 1.624-1.133 2.548l-1.403 1.402A10.44 10.44 0 0 0 17 4.959V3.102c.442-.875 1.062-2.194 1.062-2.727a1.5 1.5 0 0 0-3 0c0 .508.563 1.731 1 2.603v1.985a10.446 10.446 0 0 0-6.601 2.755L8.149 6.405c-.305-.932-.8-2.303-1.177-2.68a1.501 1.501 0 0 0-2.121 2.122c.359.36 1.623.826 2.547 1.133l1.403 1.403a10.44 10.44 0 0 0-2.713 6.554H4.103c-.871-.437-2.094-1-2.603-1a1.5 1.5 0 1 0 0 3c.533 0 1.852-.62 2.727-1.062h1.858a10.438 10.438 0 0 0 2.717 6.616L7.4 23.894c-.925.307-2.188.773-2.548 1.133a1.5 1.5 0 1 0 2.121 2.121c.377-.376.871-1.746 1.177-2.678l1.313-1.313a10.448 10.448 0 0 0 6.6 2.755v1.985c-.437.871-1 2.095-1 2.603a1.5 1.5 0 0 0 3 0c0-.533-.62-1.852-1.062-2.727v-1.858a10.432 10.432 0 0 0 6.616-2.716l1.403 1.402c.307.924.773 2.188 1.133 2.547a1.5 1.5 0 1 0 2.121-2.121c-.377-.377-1.747-.871-2.679-1.177l-1.312-1.312a10.446 10.446 0 0 0 2.758-6.663h1.858c.875.443 2.193 1.062 2.727 1.062a1.5 1.5 0 0 0-.001-2.999zm-21.41-4.14 3.552 3.552a3.472 3.472 0 0 0-.655 1.587H8.088a8.45 8.45 0 0 1 2.127-5.139zm-2.131 6.077h5.022c.078.615.308 1.178.662 1.65l-3.553 3.552a8.462 8.462 0 0 1-2.131-5.202zm7.978 8.037a8.446 8.446 0 0 1-5.186-2.17l3.55-3.55a3.462 3.462 0 0 0 1.636.694v5.026zm0-11.924a3.463 3.463 0 0 0-1.636.695l-3.55-3.55a8.451 8.451 0 0 1 5.186-2.17v5.025zm8.975 2.95h-5.025a3.466 3.466 0 0 0-.694-1.636l3.55-3.55a8.448 8.448 0 0 1 2.169 5.186zM22.202 9.09l-3.552 3.553a3.467 3.467 0 0 0-1.65-.662V6.959a8.462 8.462 0 0 1 5.202 2.131zM17 23.915v-5.021a3.472 3.472 0 0 0 1.65-.661l3.552 3.552A8.456 8.456 0 0 1 17 23.915zm5.867-2.792-3.55-3.55a3.456 3.456 0 0 0 .701-1.698h5.021a8.43 8.43 0 0 1-2.172 5.248z"/></symbol>
<symbol id="icon-home" viewBox="0 0 32 32"><path d="M32 18.451 16 6.031 0 18.451v-5.064L16 .967l16 12.42zM28 18v12h-8v-8h-8v8H4V18l12-9z"/></symbol>
<symbol id="icon-home2" viewBox="0 0 32 32"><path d="M16 1 0 17l3 3 3-3v13h8v-6h4v6h8V17l3 3 3-3L16 1zm0 13a2 2 0 1 1-.001-3.999A2 2 0 0 1 16 14z"/></symbol>
</defs></svg>